HIERARCHY
ROOT Hips
{
	OFFSET -3.958830 18.904000 13.208200
	CHANNELS 6 Xposition Yposition Zposition Zrotation Yrotation Xrotation 
	JOINT LHipJoint
	{
		OFFSET 0.000000 0.000000 0.000000
		CHANNELS 3 Zrotation Yrotation Xrotation
		JOINT LeftUpLeg
		{
			OFFSET 1.800000 -1.400000 0.085000
			CHANNELS 3 Zrotation Yrotation Xrotation
			JOINT LeftLeg
			{
				OFFSET 2.215000 -6.000000 0.000000
				CHANNELS 3 Zrotation Yrotation Xrotation
				JOINT LeftFoot
				{
					OFFSET 2.500000 -6.900000 0.000000
					CHANNELS 3 Zrotation Yrotation Xrotation
					JOINT LeftToeBase
					{
						OFFSET 0.200000 -0.500000 1.950000
						CHANNELS 3 Zrotation Yrotation Xrotation
						End Site
						{
							OFFSET 0.000000 0.000000 0.000000
						}
					}
				}
			}
		}
	}
	JOINT RHipJoint
	{
		OFFSET 0.000000 0.000000 0.000000
		CHANNELS 3 Zrotation Yrotation Xrotation
		JOINT RightUpLeg
		{
			OFFSET -1.800000 -1.400000 0.085000
			CHANNELS 3 Zrotation Yrotation Xrotation
			JOINT RightLeg
			{
				OFFSET -2.215000 -6.000000 0.000000
				CHANNELS 3 Zrotation Yrotation Xrotation
				JOINT RightFoot
				{
					OFFSET -2.500000 -6.900000 0.000000
					CHANNELS 3 Zrotation Yrotation Xrotation
					JOINT RightToeBase
					{
						OFFSET -0.200000 -0.500000 1.950000
						CHANNELS 3 Zrotation Yrotation Xrotation
						End Site
						{
							OFFSET 0.000000 0.000000 0.000000
						}
					}
				}
			}
		}
	}
	JOINT LowerBack
	{
		OFFSET 0.000000 0.000000 0.000000
		CHANNELS 3 Zrotation Yrotation Xrotation
		JOINT Spine
		{
			OFFSET -0.087000 1.940000 -0.288900
			CHANNELS 3 Zrotation Yrotation Xrotation
			JOINT Spine1
			{
				OFFSET 0.000000 1.950000 0.060000
				CHANNELS 3 Zrotation Yrotation Xrotation
				JOINT Neck
				{
					OFFSET 0.000000 0.000000 0.000000
					CHANNELS 3 Zrotation Yrotation Xrotation
					JOINT Neck1
					{
						OFFSET 0.000000 1.600000 0.340000
						CHANNELS 3 Zrotation Yrotation Xrotation
						JOINT Head
						{
							OFFSET 0.000000 1.667000 -0.240000
							CHANNELS 3 Zrotation Yrotation Xrotation
							End Site
							{
								OFFSET 0.000000 0.000000 0.000000
							}
						}
					}
				}
				JOINT LeftShoulder
				{
					OFFSET 0.000000 0.000000 0.000000
					CHANNELS 3 Zrotation Yrotation Xrotation
					JOINT LeftArm
					{
						OFFSET 2.700000 1.550000 -0.730000
						CHANNELS 3 Zrotation Yrotation Xrotation
						JOINT LeftForeArm
						{
							OFFSET 5.450000 0.000000 0.000000
							CHANNELS 3 Zrotation Yrotation Xrotation
							JOINT LeftHand
							{
								OFFSET 3.450000 0.000000 0.000000
								CHANNELS 3 Zrotation Yrotation Xrotation
								JOINT LeftHandIndex1
								{
									OFFSET 0.750000 0.000000 0.000000
									CHANNELS 3 Zrotation Yrotation Xrotation
									End Site
									{
										OFFSET 0.000000 0.000000 0.000000
									}
								}
							}
						}
					}
				}
				JOINT RightShoulder
				{
					OFFSET 0.000000 0.000000 0.000000
					CHANNELS 3 Zrotation Yrotation Xrotation
					JOINT RightArm
					{
						OFFSET -2.700000 1.550000 -0.730000
						CHANNELS 3 Zrotation Yrotation Xrotation
						JOINT RightForeArm
						{
							OFFSET -5.450000 0.000000 0.000000
							CHANNELS 3 Zrotation Yrotation Xrotation
							JOINT RightHand
							{
								OFFSET -3.450000 0.000000 0.000000
								CHANNELS 3 Zrotation Yrotation Xrotation
								JOINT RightHandIndex1
								{
									OFFSET -0.750000 0.000000 0.000000
									CHANNELS 3 Zrotation Yrotation Xrotation
									End Site
									{
										OFFSET 0.000000 0.000000 0.000000
									}
								}
							}
						}
					}
				}
			}
		}
	}
}
MOTION
Frames: 14
Frame Time: 0.016667
1.154980 15.994360 -1.372560 -6.234797 9.543730 -5.802437 -16.200304 13.722832 3.614446 17.555668 12.775736 -45.703773 20.547064 10.609255 51.879509 -0.065243 10.127902 0.559838 0.796620 0.246050 0.927980 17.559665 -8.789738 2.838551 -30.954330 13.340025 -15.417712 22.728429 -15.528928 39.615909 -1.272820 -8.080418 1.250618 0.200780 -0.215030 0.231960 -1.246715 -4.957955 -8.889242 -9.021210 1.560062 8.962292 -12.382367 1.511852 -2.107815 10.506918 -3.063474 -26.398755 -22.139475 19.020185 62.111903 -0.733030 3.501110 -26.348510 -1.829556 -22.623827 0.596799 -65.583309 -25.021727 -8.471020 -59.643257 -19.394312 0.309027 -2.892708 3.417125 1.285500 -0.385100 0.430820 0.026890 -15.002772 31.025779 25.172332 -107.353094 80.045692 -152.830131 2.605288 12.778842 2.203152 3.184445 -1.237892 -0.316400 0.345100 -0.090840 -0.463850 
1.169660 15.973320 -1.348630 -6.697489 10.140088 -6.131656 -16.134125 13.458844 3.438151 17.220870 12.858730 -45.916733 22.056823 9.933223 52.168283 -0.034784 10.172823 0.564571 0.803380 0.257930 0.922450 17.649781 -9.048864 2.680423 -30.694684 12.918225 -14.877218 21.636975 -15.023251 39.205260 -1.222592 -7.960718 1.285416 0.214970 -0.193920 0.228900 -1.471666 -4.046644 -8.432082 -8.251635 2.290157 8.938547 -12.436720 1.630459 -4.450087 10.235490 -4.166364 -25.107843 -22.141737 19.056423 61.949273 -0.229100 3.792430 -24.784740 -2.570605 -25.458688 2.056368 -66.868446 -24.632789 -9.708648 -61.801449 -16.532824 -1.287227 -2.886594 3.489929 1.251950 -0.362380 0.407680 0.036090 -13.735766 33.454655 18.732363 59.218471 88.263528 24.655822 -2.480227 13.303818 1.875318 2.897392 -0.940598 -0.313900 0.341330 -0.097320 -0.454700 
1.191090 15.960500 -1.341690 -6.921466 10.725774 -7.021333 -15.993609 13.348735 3.428258 16.587711 12.541125 -45.706707 23.974949 8.742263 52.298833 -0.023593 10.116966 0.590314 0.800130 0.274810 0.899530 17.704010 -9.641518 2.704615 -30.231201 12.308059 -14.442676 19.348887 -14.261547 39.496350 -1.163821 -7.780766 1.350686 0.223610 -0.183040 0.222310 -1.807404 -2.859110 -8.832349 -7.460258 3.358098 8.380240 -12.033317 2.949050 -3.305045 9.638584 -5.463387 -22.092552 -21.721358 18.595071 62.213320 -0.258450 4.145180 -24.517980 -3.799775 -30.405787 4.207204 -67.041015 -24.493865 -10.823065 -62.095574 -15.452401 -2.327306 -2.931602 3.420847 1.237290 -0.347810 0.400480 0.042180 -11.665468 39.369616 12.190598 42.060799 72.618881 22.119451 -4.926197 18.105828 1.275795 2.550211 -0.528819 -0.311180 0.346840 -0.096530 -0.445340 
1.198420 15.939050 -1.329880 -6.644502 10.092425 -7.297155 -16.001275 13.472499 3.361250 16.531087 12.823664 -45.294580 24.429546 8.670030 52.730363 0.033474 10.202881 0.590465 0.801900 0.291260 0.886200 17.698185 -9.745737 2.546237 -29.948701 12.077904 -14.645960 16.876113 -13.429366 40.471476 -1.110958 -7.622251 1.415412 0.232340 -0.152650 0.223090 -1.786801 -2.921078 -8.644820 -7.367836 3.266556 8.366928 -12.098005 2.752088 -3.313085 9.572420 -5.766346 -21.976526 -22.244505 18.772633 60.626309 -0.551300 4.209160 -24.056480 -3.274949 -29.485058 3.725385 -67.534424 -24.618121 -11.025524 -63.054782 -13.749880 -3.244429 -2.939401 3.442999 1.205380 -0.325760 0.391030 0.067860 -12.059483 38.529399 12.591276 43.609922 74.083449 21.573978 -5.577432 18.431798 0.960231 2.553606 -0.609962 -0.306840 0.362140 -0.110880 -0.422670 
1.194270 15.910680 -1.321130 -6.056602 9.049839 -7.251895 -16.125654 13.739974 3.275371 16.689955 13.207997 -45.000650 24.430632 8.960280 53.457446 0.069577 10.400993 0.549421 0.775720 0.264790 0.865270 17.633855 -9.439562 2.325802 -30.167752 12.098617 -14.737336 15.748210 -13.089513 41.195036 -1.052113 -7.603883 1.437004 0.240410 -0.097280 0.212930 -1.477754 -3.947807 -8.123690 -8.086072 2.130309 8.726036 -11.943901 1.276519 -3.591913 9.721061 -5.683705 -23.579179 -23.360976 19.124427 56.923003 -0.982950 4.146120 -23.111120 -1.348210 -25.282165 1.719757 -68.031650 -25.441106 -10.700651 -64.501584 -12.060868 -4.024457 -2.954064 3.506691 1.162340 -0.278850 0.338470 0.069730 -13.990926 33.960814 17.144598 56.175663 85.653065 21.297663 -5.466087 17.455802 0.453443 2.818219 -0.895751 -0.334430 0.383270 -0.095600 -0.416620 
1.184670 15.879910 -1.311570 -5.522177 8.285240 -7.226594 -16.176933 13.813692 3.209925 16.933382 13.649586 -44.705042 24.084459 9.441282 54.228646 0.131640 10.564044 0.519432 0.762620 0.273220 0.823070 17.628750 -9.248092 2.315612 -31.194760 12.331127 -14.892012 16.341366 -13.457310 41.465454 -1.045071 -7.776687 1.392537 0.255420 -0.036020 0.211170 -1.376394 -4.382444 -7.979623 -8.385035 1.797354 8.154796 -11.610903 0.869560 -2.777659 9.393475 -6.199540 -23.172597 -23.906090 18.992452 53.299726 -0.529350 3.920780 -21.949280 0.447410 -23.283291 0.995081 -69.602350 -26.123614 -10.862387 -65.298824 -11.345692 -4.542391 -3.007289 3.559996 1.094440 -0.229750 0.291680 0.091020 -15.200248 32.351928 18.409533 60.387993 89.503045 21.398168 -4.587035 18.537047 0.160719 2.965560 -0.961240 -0.333360 0.394170 -0.092860 -0.384720 
1.177650 15.860870 -1.300520 -5.429104 7.126814 -7.382738 -16.215144 13.846932 3.306724 18.341296 14.135050 -44.070322 22.784449 10.379898 55.044263 0.191785 10.784161 0.468453 0.747380 0.266310 0.765690 17.643861 -9.009992 2.287966 -31.900254 12.499964 -14.896126 16.873430 -13.863103 41.661911 -1.036894 -7.950920 1.346346 0.264460 0.041360 0.237770 -1.334863 -4.920035 -8.013775 -7.387476 1.091086 7.644308 -12.215704 0.304279 -1.553192 9.190035 -6.432156 -23.042168 -24.398886 18.962202 49.972100 -0.022710 3.620730 -19.900090 1.770966 -21.670513 0.334895 -69.714392 -27.206005 -10.247344 -64.584602 -12.339583 -3.919990 -3.071119 3.621729 1.021780 -0.162890 0.237020 0.121920 -16.354241 30.778267 20.305582 -113.895184 85.227955 -157.137823 -1.975069 19.781588 0.136366 3.204863 -1.063578 -0.326440 0.384520 -0.081170 -0.349160 
1.165870 15.852890 -1.282840 -5.274756 5.499266 -8.143947 -16.255967 13.989729 3.413490 20.163459 14.646560 -42.474032 21.440806 11.303108 55.920360 0.209675 11.034650 0.400075 0.702310 0.235090 0.707340 17.630789 -8.841557 2.270282 -32.348223 12.534942 -14.684965 16.866254 -14.122991 42.081969 -1.000171 -8.082422 1.328260 0.281510 0.124120 0.230700 -1.258336 -5.530941 -8.202397 -6.274512 0.302899 6.860365 -13.423784 -0.042851 1.120398 9.089206 -6.421226 -22.376824 -24.397506 18.345369 46.624366 -0.646180 3.174700 -18.820390 3.423980 -19.611930 -0.381403 -69.549284 -28.694568 -9.006380 -62.378563 -15.549030 -2.053603 -3.183570 3.586637 0.963730 -0.085330 0.165610 0.124130 -18.455023 29.082270 23.145355 -106.596169 78.256853 -154.703897 2.221180 22.939365 -0.404624 3.517605 -1.231599 -0.363050 0.420150 -0.040140 -0.338990 
1.138400 15.868260 -1.257150 -5.000764 3.410981 -9.348815 -16.290119 14.135072 3.451605 22.752237 14.762888 -39.243573 18.965310 12.421521 56.158599 0.211799 11.177763 0.359760 0.724020 0.268890 0.696420 17.614719 -8.780921 2.151946 -32.469711 11.863567 -13.930930 16.126538 -14.030058 41.868392 -0.959229 -8.067470 1.326584 0.327660 0.178780 0.260680 -1.187915 -6.024822 -8.206909 -5.565015 -0.534639 5.949353 -14.586272 -0.350443 3.726064 8.934802 -6.736835 -21.380889 -24.610520 17.513193 42.896113 -0.983460 2.682050 -18.597380 5.301861 -18.286160 -0.022903 -69.180622 -30.153530 -6.406188 -57.990270 -22.213793 1.366978 -3.282850 3.606984 0.902750 -0.022280 0.123690 0.140220 -20.701877 27.920315 23.901992 -102.045868 73.170363 -151.183474 7.100300 26.844254 -0.762690 3.888966 -1.431618 -0.358290 0.423990 -0.032570 -0.323350 
1.097220 15.913260 -1.218010 -4.764520 1.363991 -10.896111 -16.292345 14.174367 3.376727 25.761916 14.314441 -34.592293 15.319768 13.668406 55.152423 0.182722 11.141399 0.356016 0.783550 0.338790 0.707800 17.618634 -8.872968 1.977123 -32.296467 10.633278 -12.661435 15.143812 -13.862971 41.211599 -0.931185 -8.021229 1.311257 0.387160 0.175140 0.312700 -1.179699 -6.128696 -7.980613 -5.194395 -1.070988 5.736651 -15.487784 -0.511003 4.886295 8.765011 -6.999431 -20.950607 -23.732772 16.574766 41.046549 -1.453590 2.967090 -17.883890 6.272276 -18.135421 1.130501 -67.449722 -31.143782 -2.334890 -53.117673 -27.856498 4.108146 -3.342123 3.702770 0.841600 0.021340 0.103620 0.157930 -21.822810 26.885145 22.300007 -102.437830 72.772789 -149.181882 7.191794 30.744514 -1.496708 4.206281 -1.325157 -0.320020 0.357860 -0.050570 -0.321700 
1.046300 15.989910 -1.176560 -4.099904 -1.148588 -12.827234 -16.263366 14.281933 3.180954 28.443164 13.055406 -28.484626 10.953428 14.787845 53.066101 0.136905 10.978099 0.433853 0.789830 0.361020 0.701930 17.605436 -9.139106 1.794211 -32.232571 8.882241 -11.522793 13.178753 -13.407370 40.585694 -0.891611 -7.843489 1.379918 0.402480 0.189080 0.324730 -1.173725 -6.051434 -7.688642 -5.568736 -1.521497 6.081408 -15.708591 -0.462446 5.295613 8.861155 -7.284049 -21.352116 -23.352554 16.486557 41.228650 -2.156180 4.043520 -18.178080 6.263643 -18.666103 2.898652 -63.942743 -30.876407 1.872465 -48.412597 -34.044759 6.738061 -3.401344 3.645425 0.830870 0.050030 0.100900 0.169440 -21.998819 26.333034 19.940040 -103.878119 73.703461 -147.368465 5.796645 34.385469 -2.330516 4.581703 -1.005232 -0.320720 0.358180 -0.052420 -0.324990 
0.979790 16.075850 -1.133560 -3.859897 -2.989092 -15.257081 -15.846339 13.436127 2.713753 30.834949 10.470017 -20.608271 6.362323 15.178724 49.759853 0.063300 10.601276 0.658822 0.756280 0.327370 0.687840 17.883100 -10.614091 1.838588 -31.567394 6.014501 -11.172001 9.633369 -12.696239 40.507671 -0.884651 -7.715056 1.453593 0.379620 0.244800 0.327780 -2.135911 -2.101601 -7.604266 -5.923451 2.102703 5.285769 -13.397455 3.712559 4.484801 8.919163 -9.324489 -15.432812 -20.423123 15.597325 44.741872 -2.982890 6.080370 -17.711670 4.668677 -32.067170 10.732271 -60.037354 -31.095522 5.892936 -42.341334 -40.568806 8.891770 -3.469756 3.500520 0.825250 0.100280 0.084480 0.190170 -19.530501 36.770749 -2.873817 34.417763 65.879670 22.858379 -15.460109 41.110556 -4.394664 2.310794 0.126008 -0.348370 0.383730 -0.052790 -0.329190 
0.907900 16.179600 -1.091400 -3.057478 -7.771443 -17.407172 -15.563360 13.545693 2.549539 32.410290 7.681865 -11.667671 1.165692 15.630050 44.457784 0.064593 10.147002 0.944583 0.653800 0.215530 0.653660 17.982603 -11.305767 1.720780 -29.724869 3.363299 -12.382616 4.469535 -10.920711 41.049145 -0.801493 -7.240624 1.679707 0.287910 0.274260 0.277740 -2.559748 -1.342114 -7.457930 -5.773208 1.698157 2.871070 -12.711864 4.704785 7.831833 8.980067 -9.198414 -13.658523 -17.718266 15.190759 44.024292 -4.188660 8.235420 -17.664890 3.662280 -33.803711 13.555577 -53.290591 -27.800275 6.693637 -38.367366 -47.487470 10.976007 -3.453706 3.177016 0.851490 0.097360 0.079820 0.192140 -18.900536 39.220253 -5.764603 28.671351 58.074072 20.640453 -22.810173 53.764170 -8.574081 1.486530 0.010102 -0.399220 0.420710 -0.048370 -0.336000 
0.827780 16.292740 -1.062280 -2.368998 -13.148734 -19.361903 -15.378853 13.798040 2.330496 32.118333 5.351299 -3.578656 -0.786160 14.619846 39.515239 0.155770 9.558629 1.289178 0.514660 0.097510 0.505190 18.027403 -11.792024 1.565234 -27.045420 1.173759 -13.342350 -0.014160 -8.890351 39.957659 -0.679951 -6.655810 1.967298 0.162670 0.338060 0.254400 -2.751550 -1.019348 -7.014757 -5.465766 1.027777 1.143870 -11.715222 4.592507 9.655492 8.979529 -8.787624 -13.987898 -16.164510 15.458821 42.930137 -3.324230 9.904030 -14.838550 2.183843 -33.594947 15.624320 -47.941707 -22.320014 5.205985 -36.254202 -52.606684 12.514659 -3.429147 3.118143 0.812000 0.112640 0.051640 0.218880 -17.664998 40.097180 -5.449947 24.496196 53.091877 15.233669 -36.870896 66.800394 -21.090409 1.296952 -0.106015 -0.393220 0.395700 -0.026360 -0.278110 
